<svg xmlns="http://www.w3.org/2000/svg" viewBox="0 0 1280 420" width="1280" height="420" role="img" aria-label="Orbit deploy platform">
  <defs>
    <linearGradient id="bg" x1="0" y1="0" x2="1" y2="1">
      <stop offset="0%" stop-color="#080C18"/>
      <stop offset="55%" stop-color="#0D1428"/>
      <stop offset="100%" stop-color="#10182F"/>
    </linearGradient>
    <linearGradient id="ac" x1="0" y1="0" x2="1" y2="1">
      <stop offset="0%" stop-color="#5EE7E7"/>
      <stop offset="100%" stop-color="#7C6CF0"/>
    </linearGradient>
    <radialGradient id="cr" cx="35%" cy="30%">
      <stop offset="0%" stop-color="#B9FBFB"/>
      <stop offset="100%" stop-color="#3AC7D8"/>
    </radialGradient>
    <radialGradient id="glow" cx="50%" cy="50%">
      <stop offset="0%" stop-color="#5EE7E7" stop-opacity="0.20"/>
      <stop offset="100%" stop-color="#5EE7E7" stop-opacity="0"/>
    </radialGradient>
  </defs>
  <rect width="1280" height="420" fill="url(#bg)"/>
  <circle cx="960" cy="210" r="290" fill="url(#glow)"/>
  <g opacity="0.5" fill="#9FB3D9">
    <circle cx="120" cy="70" r="1.6"/><circle cx="300" cy="140" r="1.2"/>
    <circle cx="205" cy="330" r="1.5"/><circle cx="640" cy="60" r="1.3"/>
    <circle cx="1180" cy="340" r="1.6"/><circle cx="1090" cy="90" r="1.2"/>
    <circle cx="470" cy="380" r="1.3"/><circle cx="820" cy="360" r="1.4"/>
  </g>
  <g transform="translate(860,80)">
    <g fill="none" stroke="url(#ac)" stroke-linecap="round">
      <g transform="rotate(34 128 128)">
        <ellipse cx="128" cy="128" rx="96" ry="38" stroke-width="3.5" opacity="0.35"/>
      </g>
      <g transform="rotate(-28 128 128)">
        <ellipse cx="128" cy="128" rx="112" ry="50" stroke-width="7"/>
        <circle cx="16" cy="128" r="13" fill="url(#ac)" stroke="none"/>
      </g>
    </g>
    <circle cx="128" cy="128" r="38" fill="url(#cr)"/>
  </g>
  <text x="96" y="180" font-family="Inter, 'Helvetica Neue', Helvetica, Arial, sans-serif" font-size="96" font-weight="700" letter-spacing="14" fill="#EDF1FB">ORBIT</text>
  <text x="102" y="228" font-family="Inter, 'Helvetica Neue', Helvetica, Arial, sans-serif" font-size="23" font-weight="500" letter-spacing="5" fill="#6FE3E3">DEPLOY PLATFORM FOR YOUR OWN VPS</text>
  <text x="102" y="286" font-family="Inter, 'Helvetica Neue', Helvetica, Arial, sans-serif" font-size="21" font-weight="400" fill="#8A9AC0">Next.js · Astro · React · Node · PHP · Python · PostgreSQL</text>
  <rect x="100" y="322" width="190" height="38" rx="19" fill="none" stroke="#33456B"/>
  <text x="122" y="347" font-family="ui-monospace, SFMono-Regular, Menlo, monospace" font-size="17" fill="#9FB3D9">$ orbit new</text>
  <text x="318" y="347" font-family="Inter, Helvetica, Arial, sans-serif" font-size="17" fill="#5A6B92">by Intervolutions</text>
</svg>
